<svg xmlns="http://www.w3.org/2000/svg" width="14" height="14" viewBox="0 0 14 14">
    <path fill="#409EFF" fill-rule="nonzero" d="M3.027 10.75a.632.632 0 0 0 .093-.008l2.628-.46a.153.153 0 0 0 .083-.044l6.624-6.624c.06-.06.06-.16 0-.22L9.858.795A.155.155 0 0 0 9.747.75a.155.155 0 0 0-.111.045L3.013 7.42a.159.159 0 0 0-.044.083l-.461 2.628a.53.53 0 0 0 .519.62zM4.08 8.025l5.667-5.666 1.145 1.146L5.225 9.17l-1.39.246.245-1.391zm8.67 4.037H1.25a.5.5 0 0 0-.5.5v.563c0 .069.056.125.125.125h12.25a.125.125 0 0 0 .125-.125v-.563a.5.5 0 0 0-.5-.5z"/>
</svg>
