<svg xmlns="http://www.w3.org/2000/svg" width="14" height="14" viewBox="0 0 14 14">
    <path fill="#409EFF" fill-rule="nonzero" d="M7.152.281a6.722 6.722 0 0 0-5.679 3.09.125.125 0 0 0 .105.192h1.099a.246.246 0 0 0 .192-.091 5.529 5.529 0 0 1 4.266-2.003 5.529 5.529 0 0 1 3.916 1.62c.508.508.907 1.1 1.187 1.758.289.681.434 1.405.434 2.153a5.505 5.505 0 0 1-1.622 3.91 5.529 5.529 0 0 1-3.916 1.621 5.512 5.512 0 0 1-3.915-1.62 6.189 6.189 0 0 1-.35-.383.248.248 0 0 0-.192-.09H1.578c-.098 0-.16.109-.105.192a6.723 6.723 0 0 0 5.661 3.089c3.691 0 6.688-2.97 6.725-6.65A6.711 6.711 0 0 0 7.152.28zM5.172 8.75V7.562H.266a.125.125 0 0 1-.125-.125v-.875c0-.068.056-.125.125-.125h4.906V5.25c0-.105.122-.164.203-.098l2.218 1.75a.125.125 0 0 1 0 .196l-2.218 1.75a.126.126 0 0 1-.203-.098z"/>
</svg>
