<?xml version="1.0" encoding="UTF-8"?>
<svg width="16px" height="16px" viewBox="0 0 16 16" version="1.1" xmlns="http://www.w3.org/2000/svg" xmlns:xlink="http://www.w3.org/1999/xlink">
    <!-- Generator: Sketch 52.2 (67145) - http://www.bohemiancoding.com/sketch -->
    <title>webManagement</title>
    <desc>Created with Sketch.</desc>
    <g id="Design" stroke="none" stroke-width="1" fill="none" fill-rule="evenodd">
        <g id="SVG" transform="translate(-315.000000, -39.000000)" fill="#FFFFFF" fill-rule="nonzero">
            <g id="webManagement" transform="translate(315.000000, 39.000000)">
                <path d="M14.46875,0.96875 L1.53125,0.96875 C1.22011719,0.96875 0.96875,1.22011719 0.96875,1.53125 L0.96875,14.46875 C0.96875,14.7798828 1.22011719,15.03125 1.53125,15.03125 L14.46875,15.03125 C14.7798828,15.03125 15.03125,14.7798828 15.03125,14.46875 L15.03125,1.53125 C15.03125,1.22011719 14.7798828,0.96875 14.46875,0.96875 Z M2.234375,2.234375 L4.625,2.234375 L4.625,13.765625 L2.234375,13.765625 L2.234375,2.234375 Z M13.765625,13.765625 L5.75,13.765625 L5.75,5.75 L13.765625,5.75 L13.765625,13.765625 Z M5.75,4.625 L5.75,2.234375 L13.765625,2.234375 L13.765625,4.625 L5.75,4.625 Z" id="Shape"></path>
            </g>
        </g>
    </g>
</svg>